<mxfile host="app.diagrams.net" agent="Mozilla/5.0 (Macintosh; Intel Mac OS X 10_15_7) AppleWebKit/537.36 (KHTML, like Gecko) Chrome/127.0.0.0 Safari/537.36" version="24.7.7" pages="3">
  <diagram name="Page-1" id="JmQJLJEeu5JLvRrRKXFD">
    <mxGraphModel dx="1183" dy="1062" grid="1" gridSize="10" guides="1" tooltips="1" connect="1" arrows="1" fold="1" page="1" pageScale="1" pageWidth="850" pageHeight="1100" math="0" shadow="0">
      <root>
        <mxCell id="0" />
        <mxCell id="1" parent="0" />
        <mxCell id="JOux5U_sBteReHEJCNA7-2" value="Actor" style="shape=umlActor;verticalLabelPosition=bottom;verticalAlign=top;html=1;outlineConnect=0;" parent="1" vertex="1">
          <mxGeometry x="80" y="370" width="30" height="60" as="geometry" />
        </mxCell>
        <mxCell id="JOux5U_sBteReHEJCNA7-13" style="edgeStyle=orthogonalEdgeStyle;rounded=0;orthogonalLoop=1;jettySize=auto;html=1;exitX=1;exitY=0.25;exitDx=0;exitDy=0;entryX=0;entryY=0.5;entryDx=0;entryDy=0;" parent="1" source="JOux5U_sBteReHEJCNA7-5" target="JOux5U_sBteReHEJCNA7-7" edge="1">
          <mxGeometry relative="1" as="geometry">
            <Array as="points">
              <mxPoint x="500" y="370" />
              <mxPoint x="500" y="300" />
            </Array>
          </mxGeometry>
        </mxCell>
        <mxCell id="JOux5U_sBteReHEJCNA7-29" style="edgeStyle=orthogonalEdgeStyle;rounded=0;orthogonalLoop=1;jettySize=auto;html=1;" parent="1" source="JOux5U_sBteReHEJCNA7-36" target="JOux5U_sBteReHEJCNA7-6" edge="1">
          <mxGeometry relative="1" as="geometry" />
        </mxCell>
        <mxCell id="JOux5U_sBteReHEJCNA7-5" value="&lt;font style=&quot;font-size: 19px;&quot;&gt;API GATEWAY&amp;nbsp;&lt;/font&gt;" style="whiteSpace=wrap;html=1;aspect=fixed;" parent="1" vertex="1">
          <mxGeometry x="220" y="340" width="120" height="120" as="geometry" />
        </mxCell>
        <mxCell id="JOux5U_sBteReHEJCNA7-23" style="edgeStyle=orthogonalEdgeStyle;rounded=0;orthogonalLoop=1;jettySize=auto;html=1;entryX=0;entryY=0.75;entryDx=0;entryDy=0;" parent="1" source="JOux5U_sBteReHEJCNA7-6" target="JOux5U_sBteReHEJCNA7-14" edge="1">
          <mxGeometry relative="1" as="geometry" />
        </mxCell>
        <mxCell id="JOux5U_sBteReHEJCNA7-6" value="READ" style="whiteSpace=wrap;html=1;aspect=fixed;" parent="1" vertex="1">
          <mxGeometry x="550" y="400" width="80" height="80" as="geometry" />
        </mxCell>
        <mxCell id="JOux5U_sBteReHEJCNA7-15" style="edgeStyle=orthogonalEdgeStyle;rounded=0;orthogonalLoop=1;jettySize=auto;html=1;exitX=1;exitY=0.25;exitDx=0;exitDy=0;entryX=0;entryY=0.5;entryDx=0;entryDy=0;" parent="1" source="JOux5U_sBteReHEJCNA7-7" target="JOux5U_sBteReHEJCNA7-11" edge="1">
          <mxGeometry relative="1" as="geometry" />
        </mxCell>
        <mxCell id="JOux5U_sBteReHEJCNA7-7" value="WRITE" style="whiteSpace=wrap;html=1;aspect=fixed;" parent="1" vertex="1">
          <mxGeometry x="550" y="260" width="80" height="80" as="geometry" />
        </mxCell>
        <mxCell id="JOux5U_sBteReHEJCNA7-8" value="" style="image;aspect=fixed;perimeter=ellipsePerimeter;html=1;align=center;shadow=0;dashed=0;spacingTop=3;image=img/lib/active_directory/databases.svg;" parent="1" vertex="1">
          <mxGeometry x="860" y="450" width="61.22" height="60" as="geometry" />
        </mxCell>
        <mxCell id="JOux5U_sBteReHEJCNA7-18" style="edgeStyle=orthogonalEdgeStyle;rounded=0;orthogonalLoop=1;jettySize=auto;html=1;entryX=1;entryY=0.75;entryDx=0;entryDy=0;" parent="1" source="JOux5U_sBteReHEJCNA7-11" target="JOux5U_sBteReHEJCNA7-6" edge="1">
          <mxGeometry relative="1" as="geometry" />
        </mxCell>
        <mxCell id="JOux5U_sBteReHEJCNA7-11" value="" style="image;aspect=fixed;perimeter=ellipsePerimeter;html=1;align=center;shadow=0;dashed=0;spacingTop=3;image=img/lib/active_directory/databases.svg;" parent="1" vertex="1">
          <mxGeometry x="800" y="340" width="60" height="58.8" as="geometry" />
        </mxCell>
        <mxCell id="JOux5U_sBteReHEJCNA7-12" value="" style="image;aspect=fixed;perimeter=ellipsePerimeter;html=1;align=center;shadow=0;dashed=0;spacingTop=3;image=img/lib/active_directory/databases.svg;" parent="1" vertex="1">
          <mxGeometry x="930" y="361" width="70.41" height="69" as="geometry" />
        </mxCell>
        <mxCell id="JOux5U_sBteReHEJCNA7-24" style="edgeStyle=orthogonalEdgeStyle;rounded=0;orthogonalLoop=1;jettySize=auto;html=1;entryX=1;entryY=0.25;entryDx=0;entryDy=0;" parent="1" source="JOux5U_sBteReHEJCNA7-14" target="JOux5U_sBteReHEJCNA7-6" edge="1">
          <mxGeometry relative="1" as="geometry" />
        </mxCell>
        <mxCell id="JOux5U_sBteReHEJCNA7-25" style="edgeStyle=orthogonalEdgeStyle;rounded=0;orthogonalLoop=1;jettySize=auto;html=1;" parent="1" source="JOux5U_sBteReHEJCNA7-14" target="JOux5U_sBteReHEJCNA7-11" edge="1">
          <mxGeometry relative="1" as="geometry" />
        </mxCell>
        <mxCell id="JOux5U_sBteReHEJCNA7-14" value="CACHE&amp;nbsp;&lt;br&gt;( REDIS)&amp;nbsp;&lt;div&gt;&lt;br&gt;&lt;/div&gt;" style="whiteSpace=wrap;html=1;aspect=fixed;" parent="1" vertex="1">
          <mxGeometry x="680" y="510" width="100" height="100" as="geometry" />
        </mxCell>
        <mxCell id="JOux5U_sBteReHEJCNA7-19" value="FOR EVENTUAL CONSISTENCY,&amp;nbsp;&lt;br&gt;WE CAN MAINTAIN&amp;nbsp;&lt;br&gt;R + W &amp;lt; N&amp;nbsp;&lt;br&gt;&lt;br&gt;( WHERE 3 IS TOAL REPLICAS )&amp;nbsp;&amp;nbsp;&lt;br&gt;{ WE DO NOT NEED TO WORRY ABOUT THIS }&lt;br&gt;&lt;br&gt;POSTGRE SQL&amp;nbsp;&lt;br&gt;MASTER SLAVE ARCHITECTURE ALREADY FOLLOWED&amp;nbsp;" style="rounded=0;whiteSpace=wrap;html=1;" parent="1" vertex="1">
          <mxGeometry x="880" y="110" width="210" height="240" as="geometry" />
        </mxCell>
        <mxCell id="JOux5U_sBteReHEJCNA7-27" value="IF NOT PRESENT,&amp;nbsp;&lt;div&gt;THEN GO TO DB&lt;/div&gt;" style="text;html=1;align=center;verticalAlign=middle;resizable=0;points=[];autosize=1;strokeColor=none;fillColor=none;" parent="1" vertex="1">
          <mxGeometry x="840" y="515" width="130" height="40" as="geometry" />
        </mxCell>
        <mxCell id="JOux5U_sBteReHEJCNA7-28" value="IF PRESENT, RETURN&amp;nbsp;&lt;br&gt;DIRECTLY&amp;nbsp;" style="text;html=1;align=center;verticalAlign=middle;resizable=0;points=[];autosize=1;strokeColor=none;fillColor=none;" parent="1" vertex="1">
          <mxGeometry x="650" y="475" width="150" height="40" as="geometry" />
        </mxCell>
        <mxCell id="JOux5U_sBteReHEJCNA7-30" value="NO 3RD PARTY CALLS,&amp;nbsp;&lt;div&gt;&lt;br/&gt;&lt;/div&gt;" style="text;html=1;align=center;verticalAlign=middle;whiteSpace=wrap;rounded=0;" parent="1" vertex="1">
          <mxGeometry x="680" y="140" width="150" height="60" as="geometry" />
        </mxCell>
        <mxCell id="JOux5U_sBteReHEJCNA7-31" value="USER" style="swimlane;fontStyle=0;childLayout=stackLayout;horizontal=1;startSize=30;horizontalStack=0;resizeParent=1;resizeParentMax=0;resizeLast=0;collapsible=1;marginBottom=0;whiteSpace=wrap;html=1;" parent="1" vertex="1">
          <mxGeometry x="250" y="580" width="120" height="120" as="geometry" />
        </mxCell>
        <mxCell id="JOux5U_sBteReHEJCNA7-32" value="- lastSeen - long&amp;nbsp;" style="text;strokeColor=none;fillColor=none;align=left;verticalAlign=middle;spacingLeft=4;spacingRight=4;overflow=hidden;points=[[0,0.5],[1,0.5]];portConstraint=eastwest;rotatable=0;whiteSpace=wrap;html=1;" parent="JOux5U_sBteReHEJCNA7-31" vertex="1">
          <mxGeometry y="30" width="120" height="30" as="geometry" />
        </mxCell>
        <mxCell id="JOux5U_sBteReHEJCNA7-33" value="Item 2" style="text;strokeColor=none;fillColor=none;align=left;verticalAlign=middle;spacingLeft=4;spacingRight=4;overflow=hidden;points=[[0,0.5],[1,0.5]];portConstraint=eastwest;rotatable=0;whiteSpace=wrap;html=1;" parent="JOux5U_sBteReHEJCNA7-31" vertex="1">
          <mxGeometry y="60" width="120" height="30" as="geometry" />
        </mxCell>
        <mxCell id="JOux5U_sBteReHEJCNA7-34" value="Item 3" style="text;strokeColor=none;fillColor=none;align=left;verticalAlign=middle;spacingLeft=4;spacingRight=4;overflow=hidden;points=[[0,0.5],[1,0.5]];portConstraint=eastwest;rotatable=0;whiteSpace=wrap;html=1;" parent="JOux5U_sBteReHEJCNA7-31" vertex="1">
          <mxGeometry y="90" width="120" height="30" as="geometry" />
        </mxCell>
        <mxCell id="JOux5U_sBteReHEJCNA7-37" value="Sharding - database part present" style="rounded=0;whiteSpace=wrap;html=1;" parent="1" vertex="1">
          <mxGeometry x="880" y="600" width="120" height="60" as="geometry" />
        </mxCell>
        <mxCell id="P4UhmqR7wPMvScNSx2Rz-1" value="" style="edgeStyle=orthogonalEdgeStyle;rounded=0;orthogonalLoop=1;jettySize=auto;html=1;" parent="1" source="JOux5U_sBteReHEJCNA7-5" target="JOux5U_sBteReHEJCNA7-36" edge="1">
          <mxGeometry relative="1" as="geometry">
            <mxPoint x="340" y="400" as="sourcePoint" />
            <mxPoint x="550" y="440" as="targetPoint" />
          </mxGeometry>
        </mxCell>
        <mxCell id="JOux5U_sBteReHEJCNA7-36" value="&lt;font style=&quot;font-size: 15px;&quot;&gt;Chat Server&lt;/font&gt;" style="rounded=0;whiteSpace=wrap;html=1;" parent="1" vertex="1">
          <mxGeometry x="370" y="330" width="120" height="130" as="geometry" />
        </mxCell>
      </root>
    </mxGraphModel>
  </diagram>
  <diagram id="_AOZXHx1rjMz0_NS0dP8" name="Page-2">
    <mxGraphModel dx="2425" dy="998" grid="1" gridSize="10" guides="1" tooltips="1" connect="1" arrows="1" fold="1" page="1" pageScale="1" pageWidth="850" pageHeight="1100" math="0" shadow="0">
      <root>
        <mxCell id="0" />
        <mxCell id="1" parent="0" />
        <mxCell id="hQ_VY_itG3UDM3dAe7XN-1" value="&lt;font style=&quot;font-size: 16px;&quot;&gt;main.py&lt;/font&gt;" style="rounded=0;whiteSpace=wrap;html=1;" vertex="1" parent="1">
          <mxGeometry x="480" y="220" width="120" height="180" as="geometry" />
        </mxCell>
        <mxCell id="hQ_VY_itG3UDM3dAe7XN-2" value="Actor" style="shape=umlActor;verticalLabelPosition=bottom;verticalAlign=top;html=1;outlineConnect=0;" vertex="1" parent="1">
          <mxGeometry x="120" y="250" width="100" height="120" as="geometry" />
        </mxCell>
        <mxCell id="hQ_VY_itG3UDM3dAe7XN-4" value="&lt;font style=&quot;font-size: 20px;&quot; color=&quot;#ce9178&quot;&gt;https://localhost:8000/integrations/hubspot/authorize&lt;/font&gt;&lt;div style=&quot;font-size: 20px;&quot;&gt;&lt;font style=&quot;font-size: 20px;&quot; color=&quot;#ce9178&quot;&gt;(POST)&lt;/font&gt;&lt;/div&gt;" style="text;html=1;align=center;verticalAlign=middle;resizable=0;points=[];autosize=1;strokeColor=none;fillColor=none;" vertex="1" parent="1">
          <mxGeometry x="-70" y="155" width="490" height="60" as="geometry" />
        </mxCell>
        <mxCell id="hQ_VY_itG3UDM3dAe7XN-7" value="{&lt;br&gt;userId :String&amp;nbsp;&lt;br&gt;OrgId:String&lt;br&gt;}" style="text;html=1;align=center;verticalAlign=middle;whiteSpace=wrap;rounded=0;" vertex="1" parent="1">
          <mxGeometry x="240" y="260" width="60" height="40" as="geometry" />
        </mxCell>
        <mxCell id="hQ_VY_itG3UDM3dAe7XN-8" value="" style="endArrow=classic;html=1;rounded=0;entryX=-0.017;entryY=0.542;entryDx=0;entryDy=0;entryPerimeter=0;" edge="1" parent="1" target="hQ_VY_itG3UDM3dAe7XN-1">
          <mxGeometry width="50" height="50" relative="1" as="geometry">
            <mxPoint x="250" y="320" as="sourcePoint" />
            <mxPoint x="490" y="230" as="targetPoint" />
          </mxGeometry>
        </mxCell>
        <mxCell id="hQ_VY_itG3UDM3dAe7XN-10" value="" style="endArrow=classic;html=1;rounded=0;exitX=1;exitY=0.5;exitDx=0;exitDy=0;" edge="1" parent="1" source="hQ_VY_itG3UDM3dAe7XN-1">
          <mxGeometry width="50" height="50" relative="1" as="geometry">
            <mxPoint x="520" y="330" as="sourcePoint" />
            <mxPoint x="700" y="310" as="targetPoint" />
          </mxGeometry>
        </mxCell>
        <mxCell id="hQ_VY_itG3UDM3dAe7XN-12" style="edgeStyle=orthogonalEdgeStyle;rounded=0;orthogonalLoop=1;jettySize=auto;html=1;" edge="1" parent="1" source="hQ_VY_itG3UDM3dAe7XN-11">
          <mxGeometry relative="1" as="geometry">
            <mxPoint x="930" y="305" as="targetPoint" />
          </mxGeometry>
        </mxCell>
        <mxCell id="hQ_VY_itG3UDM3dAe7XN-11" value="&lt;span style=&quot;font-size: 16px;&quot;&gt;Hubspot.py&lt;/span&gt;" style="rounded=0;whiteSpace=wrap;html=1;" vertex="1" parent="1">
          <mxGeometry x="700" y="215" width="120" height="180" as="geometry" />
        </mxCell>
        <mxCell id="hQ_VY_itG3UDM3dAe7XN-13" value="&lt;span style=&quot;font-size: 16px;&quot;&gt;HubSpot Server&lt;/span&gt;" style="rounded=0;whiteSpace=wrap;html=1;" vertex="1" parent="1">
          <mxGeometry x="940" y="215" width="120" height="180" as="geometry" />
        </mxCell>
        <mxCell id="hQ_VY_itG3UDM3dAe7XN-14" value="" style="endArrow=classic;html=1;rounded=0;entryX=0.992;entryY=0.711;entryDx=0;entryDy=0;entryPerimeter=0;exitX=-0.025;exitY=0.717;exitDx=0;exitDy=0;exitPerimeter=0;" edge="1" parent="1" source="hQ_VY_itG3UDM3dAe7XN-13" target="hQ_VY_itG3UDM3dAe7XN-11">
          <mxGeometry width="50" height="50" relative="1" as="geometry">
            <mxPoint x="940" y="350" as="sourcePoint" />
            <mxPoint x="830" y="340" as="targetPoint" />
            <Array as="points">
              <mxPoint x="880" y="343" />
            </Array>
          </mxGeometry>
        </mxCell>
        <mxCell id="hQ_VY_itG3UDM3dAe7XN-16" value="authorize_url" style="text;html=1;align=center;verticalAlign=middle;resizable=0;points=[];autosize=1;strokeColor=none;fillColor=none;fontSize=15;" vertex="1" parent="1">
          <mxGeometry x="820" y="270" width="110" height="30" as="geometry" />
        </mxCell>
        <mxCell id="hQ_VY_itG3UDM3dAe7XN-17" value="&lt;font style=&quot;font-size: 15px;&quot;&gt;redirect_url&lt;/font&gt;" style="text;html=1;align=center;verticalAlign=middle;resizable=0;points=[];autosize=1;strokeColor=none;fillColor=none;" vertex="1" parent="1">
          <mxGeometry x="825" y="350" width="100" height="30" as="geometry" />
        </mxCell>
      </root>
    </mxGraphModel>
  </diagram>
  <diagram id="ypFeUfu3qE1IJ5mmnc6q" name="Page-3">
    <mxGraphModel dx="1674" dy="796" grid="1" gridSize="10" guides="1" tooltips="1" connect="1" arrows="1" fold="1" page="1" pageScale="1" pageWidth="850" pageHeight="1100" math="0" shadow="0">
      <root>
        <mxCell id="0" />
        <mxCell id="1" parent="0" />
        <mxCell id="SIPaFjkemzOw-gw2U2gF-16" value="" style="rounded=0;whiteSpace=wrap;html=1;" parent="1" vertex="1">
          <mxGeometry x="95" y="70" width="385" height="670" as="geometry" />
        </mxCell>
        <mxCell id="SIPaFjkemzOw-gw2U2gF-13" value="" style="whiteSpace=wrap;html=1;aspect=fixed;" parent="1" vertex="1">
          <mxGeometry x="504.25" y="70" width="670" height="670" as="geometry" />
        </mxCell>
        <mxCell id="2k7QSXAF3z4Tr43qlxNP-17" style="edgeStyle=orthogonalEdgeStyle;rounded=0;orthogonalLoop=1;jettySize=auto;html=1;" parent="1" source="SIPaFjkemzOw-gw2U2gF-1" target="2k7QSXAF3z4Tr43qlxNP-12" edge="1">
          <mxGeometry relative="1" as="geometry">
            <Array as="points">
              <mxPoint x="270" y="372" />
              <mxPoint x="270" y="372" />
            </Array>
          </mxGeometry>
        </mxCell>
        <mxCell id="SIPaFjkemzOw-gw2U2gF-1" value="" style="outlineConnect=0;dashed=0;verticalLabelPosition=bottom;verticalAlign=top;align=center;html=1;shape=mxgraph.aws3.management_console;fillColor=#D2D3D3;gradientColor=none;" parent="1" vertex="1">
          <mxGeometry x="100" y="340" width="63" height="63" as="geometry" />
        </mxCell>
        <mxCell id="SIPaFjkemzOw-gw2U2gF-9" value="&lt;span style=&quot;font-size: 18px;&quot;&gt;&lt;b&gt;Client&lt;br&gt;&lt;/b&gt;&lt;/span&gt;" style="text;html=1;align=center;verticalAlign=middle;resizable=0;points=[];autosize=1;strokeColor=none;fillColor=none;" parent="1" vertex="1">
          <mxGeometry x="95" y="280" width="70" height="40" as="geometry" />
        </mxCell>
        <mxCell id="SIPaFjkemzOw-gw2U2gF-11" value="" style="sketch=0;points=[[0,0,0],[0.25,0,0],[0.5,0,0],[0.75,0,0],[1,0,0],[0,1,0],[0.25,1,0],[0.5,1,0],[0.75,1,0],[1,1,0],[0,0.25,0],[0,0.5,0],[0,0.75,0],[1,0.25,0],[1,0.5,0],[1,0.75,0]];outlineConnect=0;fontColor=#232F3E;fillColor=#7AA116;strokeColor=#ffffff;dashed=0;verticalLabelPosition=bottom;verticalAlign=top;align=center;html=1;fontSize=12;fontStyle=0;aspect=fixed;shape=mxgraph.aws4.resourceIcon;resIcon=mxgraph.aws4.s3;" parent="1" vertex="1">
          <mxGeometry x="240" y="472" width="78" height="78" as="geometry" />
        </mxCell>
        <mxCell id="SIPaFjkemzOw-gw2U2gF-12" value="&lt;span style=&quot;font-size: 18px;&quot;&gt;&lt;b&gt;Amazon S3&lt;br&gt;( Hosts React&amp;nbsp;&lt;br&gt;Application)&amp;nbsp;&lt;/b&gt;&lt;/span&gt;" style="text;html=1;align=center;verticalAlign=middle;resizable=0;points=[];autosize=1;strokeColor=none;fillColor=none;" parent="1" vertex="1">
          <mxGeometry x="210" y="580" width="140" height="80" as="geometry" />
        </mxCell>
        <mxCell id="SIPaFjkemzOw-gw2U2gF-14" value="&lt;font style=&quot;font-size: 19px;&quot;&gt;&lt;b&gt;Amazon Private Subnet&lt;/b&gt;&lt;/font&gt;" style="text;html=1;align=center;verticalAlign=middle;resizable=0;points=[];autosize=1;strokeColor=none;fillColor=none;" parent="1" vertex="1">
          <mxGeometry x="730" y="10" width="240" height="40" as="geometry" />
        </mxCell>
        <mxCell id="SIPaFjkemzOw-gw2U2gF-17" value="&lt;font style=&quot;font-size: 19px;&quot;&gt;&lt;b&gt;Public Subnet&lt;/b&gt;&lt;/font&gt;" style="text;html=1;align=center;verticalAlign=middle;resizable=0;points=[];autosize=1;strokeColor=none;fillColor=none;" parent="1" vertex="1">
          <mxGeometry x="170" y="20" width="150" height="40" as="geometry" />
        </mxCell>
        <mxCell id="SIPaFjkemzOw-gw2U2gF-18" value="" style="edgeStyle=orthogonalEdgeStyle;html=1;endArrow=block;elbow=vertical;startArrow=none;endFill=1;strokeColor=#545B64;rounded=0;" parent="1" edge="1">
          <mxGeometry width="100" relative="1" as="geometry">
            <mxPoint x="433" y="379.79" as="sourcePoint" />
            <mxPoint x="533" y="379.79" as="targetPoint" />
            <Array as="points">
              <mxPoint x="523" y="379.79" />
              <mxPoint x="523" y="379.79" />
            </Array>
          </mxGeometry>
        </mxCell>
        <mxCell id="2k7QSXAF3z4Tr43qlxNP-3" value="" style="edgeStyle=orthogonalEdgeStyle;html=1;endArrow=openThin;elbow=vertical;startArrow=none;endFill=0;strokeColor=#545B64;rounded=0;entryX=0;entryY=0.25;entryDx=0;entryDy=0;entryPerimeter=0;" parent="1" target="SIPaFjkemzOw-gw2U2gF-11" edge="1">
          <mxGeometry width="100" relative="1" as="geometry">
            <mxPoint x="163" y="410" as="sourcePoint" />
            <mxPoint x="263" y="410" as="targetPoint" />
          </mxGeometry>
        </mxCell>
        <mxCell id="2k7QSXAF3z4Tr43qlxNP-4" value="" style="outlineConnect=0;dashed=0;verticalLabelPosition=bottom;verticalAlign=top;align=center;html=1;shape=mxgraph.aws3.classic_load_balancer;fillColor=#F58536;gradientColor=none;" parent="1" vertex="1">
          <mxGeometry x="550" y="331" width="120" height="99" as="geometry" />
        </mxCell>
        <mxCell id="2k7QSXAF3z4Tr43qlxNP-5" value="&lt;font style=&quot;font-size: 18px;&quot;&gt;&lt;b&gt;EC2 instance&lt;br&gt;( for Django )&amp;nbsp;&lt;/b&gt;&lt;/font&gt;" style="text;html=1;align=center;verticalAlign=middle;resizable=0;points=[];autosize=1;strokeColor=none;fillColor=none;" parent="1" vertex="1">
          <mxGeometry x="769.25" y="250" width="140" height="60" as="geometry" />
        </mxCell>
        <mxCell id="2k7QSXAF3z4Tr43qlxNP-6" value="" style="sketch=0;points=[[0,0,0],[0.25,0,0],[0.5,0,0],[0.75,0,0],[1,0,0],[0,1,0],[0.25,1,0],[0.5,1,0],[0.75,1,0],[1,1,0],[0,0.25,0],[0,0.5,0],[0,0.75,0],[1,0.25,0],[1,0.5,0],[1,0.75,0]];outlineConnect=0;fontColor=#232F3E;fillColor=#ED7100;strokeColor=#ffffff;dashed=0;verticalLabelPosition=bottom;verticalAlign=top;align=center;html=1;fontSize=12;fontStyle=0;aspect=fixed;shape=mxgraph.aws4.resourceIcon;resIcon=mxgraph.aws4.ec2;" parent="1" vertex="1">
          <mxGeometry x="790" y="341.5" width="98.5" height="98.5" as="geometry" />
        </mxCell>
        <mxCell id="2k7QSXAF3z4Tr43qlxNP-7" value="" style="sketch=0;points=[[0,0,0],[0.25,0,0],[0.5,0,0],[0.75,0,0],[1,0,0],[0,1,0],[0.25,1,0],[0.5,1,0],[0.75,1,0],[1,1,0],[0,0.25,0],[0,0.5,0],[0,0.75,0],[1,0.25,0],[1,0.5,0],[1,0.75,0]];outlineConnect=0;fontColor=#232F3E;fillColor=#C925D1;strokeColor=#ffffff;dashed=0;verticalLabelPosition=bottom;verticalAlign=top;align=center;html=1;fontSize=12;fontStyle=0;aspect=fixed;shape=mxgraph.aws4.resourceIcon;resIcon=mxgraph.aws4.rds;" parent="1" vertex="1">
          <mxGeometry x="1000" y="341.5" width="90" height="90" as="geometry" />
        </mxCell>
        <mxCell id="2k7QSXAF3z4Tr43qlxNP-8" value="&lt;span style=&quot;font-size: 18px;&quot;&gt;&lt;b&gt;Amazon RDS&amp;nbsp;&lt;br&gt;( for db.sqlite3)&amp;nbsp;&lt;/b&gt;&lt;/span&gt;" style="text;html=1;align=center;verticalAlign=middle;resizable=0;points=[];autosize=1;strokeColor=none;fillColor=none;" parent="1" vertex="1">
          <mxGeometry x="970" y="250" width="160" height="60" as="geometry" />
        </mxCell>
        <mxCell id="2k7QSXAF3z4Tr43qlxNP-9" value="&lt;span style=&quot;font-size: 18px;&quot;&gt;&lt;b&gt;Elastic Load &lt;br&gt;Balancer&lt;br&gt;&lt;/b&gt;&lt;/span&gt;" style="text;html=1;align=center;verticalAlign=middle;resizable=0;points=[];autosize=1;strokeColor=none;fillColor=none;" parent="1" vertex="1">
          <mxGeometry x="545" y="250" width="130" height="60" as="geometry" />
        </mxCell>
        <mxCell id="2k7QSXAF3z4Tr43qlxNP-10" value="" style="edgeStyle=orthogonalEdgeStyle;html=1;endArrow=block;elbow=vertical;startArrow=none;endFill=1;strokeColor=#545B64;rounded=0;" parent="1" edge="1">
          <mxGeometry width="100" relative="1" as="geometry">
            <mxPoint x="680" y="379.79" as="sourcePoint" />
            <mxPoint x="780" y="379.79" as="targetPoint" />
            <Array as="points">
              <mxPoint x="770" y="379.79" />
              <mxPoint x="770" y="379.79" />
            </Array>
          </mxGeometry>
        </mxCell>
        <mxCell id="2k7QSXAF3z4Tr43qlxNP-11" value="" style="edgeStyle=orthogonalEdgeStyle;html=1;endArrow=block;elbow=vertical;startArrow=none;endFill=1;strokeColor=#545B64;rounded=0;" parent="1" edge="1">
          <mxGeometry width="100" relative="1" as="geometry">
            <mxPoint x="880" y="390" as="sourcePoint" />
            <mxPoint x="980" y="390" as="targetPoint" />
            <Array as="points">
              <mxPoint x="970" y="390" />
              <mxPoint x="970" y="390" />
            </Array>
          </mxGeometry>
        </mxCell>
        <mxCell id="2k7QSXAF3z4Tr43qlxNP-12" value="" style="sketch=0;points=[[0,0,0],[0.25,0,0],[0.5,0,0],[0.75,0,0],[1,0,0],[0,1,0],[0.25,1,0],[0.5,1,0],[0.75,1,0],[1,1,0],[0,0.25,0],[0,0.5,0],[0,0.75,0],[1,0.25,0],[1,0.5,0],[1,0.75,0]];outlineConnect=0;fontColor=#232F3E;fillColor=#8C4FFF;strokeColor=#ffffff;dashed=0;verticalLabelPosition=bottom;verticalAlign=top;align=center;html=1;fontSize=12;fontStyle=0;aspect=fixed;shape=mxgraph.aws4.resourceIcon;resIcon=mxgraph.aws4.api_gateway;" parent="1" vertex="1">
          <mxGeometry x="333" y="321.5" width="100" height="100" as="geometry" />
        </mxCell>
        <mxCell id="2k7QSXAF3z4Tr43qlxNP-15" style="edgeStyle=orthogonalEdgeStyle;rounded=0;orthogonalLoop=1;jettySize=auto;html=1;entryX=0;entryY=0.25;entryDx=0;entryDy=0;entryPerimeter=0;" parent="1" source="2k7QSXAF3z4Tr43qlxNP-13" target="2k7QSXAF3z4Tr43qlxNP-12" edge="1">
          <mxGeometry relative="1" as="geometry" />
        </mxCell>
        <mxCell id="2k7QSXAF3z4Tr43qlxNP-13" value="" style="outlineConnect=0;dashed=0;verticalLabelPosition=bottom;verticalAlign=top;align=center;html=1;shape=mxgraph.aws3.management_console;fillColor=#D2D3D3;gradientColor=none;" parent="1" vertex="1">
          <mxGeometry x="100" y="200" width="63" height="63" as="geometry" />
        </mxCell>
        <mxCell id="2k7QSXAF3z4Tr43qlxNP-14" value="&lt;span style=&quot;font-size: 18px;&quot;&gt;&lt;b&gt;Client&lt;br&gt;&lt;/b&gt;&lt;/span&gt;" style="text;html=1;align=center;verticalAlign=middle;resizable=0;points=[];autosize=1;strokeColor=none;fillColor=none;" parent="1" vertex="1">
          <mxGeometry x="100" y="140" width="70" height="40" as="geometry" />
        </mxCell>
        <mxCell id="2k7QSXAF3z4Tr43qlxNP-18" value="&lt;span style=&quot;font-size: 18px;&quot;&gt;&lt;b&gt;Amazon API&amp;nbsp;&lt;br&gt;Gateway&lt;/b&gt;&lt;/span&gt;" style="text;html=1;align=center;verticalAlign=middle;resizable=0;points=[];autosize=1;strokeColor=none;fillColor=none;" parent="1" vertex="1">
          <mxGeometry x="318" y="250" width="130" height="60" as="geometry" />
        </mxCell>
      </root>
    </mxGraphModel>
  </diagram>
</mxfile>
